<svg width="501" height="500" viewBox="0 0 501 500" fill="none" xmlns="http://www.w3.org/2000/svg">
<circle cx="250.561" cy="250" r="250" fill="#8CF35A"/>
<path d="M262.194 233.125C262.194 227.947 259.209 223.75 255.526 223.75H186.84C183.157 223.75 180.171 227.947 180.171 233.125C180.171 238.303 183.157 242.5 186.84 242.5H255.526C259.209 242.5 262.194 238.303 262.194 233.125Z" fill="#211F1F"/>
<path d="M211.708 351.25H180.224C169.842 351.25 161.396 342.839 161.396 332.5V167.5C161.396 157.161 169.842 148.75 180.224 148.75H295.964C306.346 148.75 314.792 157.161 314.792 167.5V225.156C314.792 230.334 319.007 234.531 324.207 234.531C329.406 234.531 333.621 230.334 333.621 225.156V167.5C333.621 146.823 316.728 130 295.964 130H180.224C159.46 130 142.567 146.823 142.567 167.5V332.5C142.567 353.177 159.46 370 180.224 370H211.708C216.908 370 221.123 365.803 221.123 360.625C221.123 355.447 216.908 351.25 211.708 351.25Z" fill="#211F1F"/>
<path d="M286.55 186.25H189.585C184.386 186.25 180.171 190.447 180.171 195.625C180.171 200.803 184.386 205 189.585 205H286.55C291.75 205 295.964 200.803 295.964 195.625C295.964 190.447 291.75 186.25 286.55 186.25Z" fill="#211F1F"/>
<path fill-rule="evenodd" clip-rule="evenodd" d="M310.363 265.729C321.367 254.77 339.284 254.771 350.296 265.737C361.308 276.704 361.308 294.546 350.296 305.512L298.72 356.778C297.571 357.92 296.146 358.746 294.582 359.177L256.585 369.659C255.755 369.888 254.909 370 254.072 370C251.569 370 249.129 369.005 247.333 367.171C244.935 364.724 244.066 361.171 245.064 357.9L256.32 320.997C256.771 319.52 257.58 318.176 258.678 317.086L310.363 265.729ZM268.054 347.04L287.171 341.766L321.816 307.329L321.822 307.336L335.158 294.053L335.165 294.061L336.989 292.248C340.653 288.599 340.653 282.651 336.983 278.996C333.312 275.341 327.34 275.341 323.669 278.996L321.851 280.802L321.866 280.817L308.531 294.054L308.523 294.046L273.649 328.698L268.054 347.04Z" fill="#211F1F"/>
</svg>
